<mxfile host="app.diagrams.net" modified="2023-07-04T07:18:41.704Z" agent="Mozilla/5.0 (Windows NT 10.0; Win64; x64) AppleWebKit/537.36 (KHTML, like Gecko) Chrome/114.0.0.0 Safari/537.36" etag="_ir_0ueB3SBXcK0uG5QS" version="21.5.2" type="google">
  <diagram name="P치gina-1" id="cBZDiQb0oRLdJVYkpLpK">
    <mxGraphModel grid="1" page="1" gridSize="10" guides="1" tooltips="1" connect="1" arrows="1" fold="1" pageScale="1" pageWidth="827" pageHeight="1169" math="0" shadow="0">
      <root>
        <mxCell id="0" />
        <mxCell id="1" parent="0" />
        <mxCell id="b8WQgHWOanL6_8N-6dOk-1" value="" style="rounded=0;whiteSpace=wrap;html=1;" vertex="1" parent="1">
          <mxGeometry x="110" y="210" width="430" height="60" as="geometry" />
        </mxCell>
        <mxCell id="b8WQgHWOanL6_8N-6dOk-2" value="Dev" style="text;html=1;align=center;verticalAlign=middle;resizable=0;points=[];autosize=1;strokeColor=none;fillColor=none;" vertex="1" parent="1">
          <mxGeometry x="500" y="270" width="40" height="30" as="geometry" />
        </mxCell>
        <mxCell id="b8WQgHWOanL6_8N-6dOk-4" value="" style="rounded=0;whiteSpace=wrap;html=1;" vertex="1" parent="1">
          <mxGeometry x="650" y="210" width="360" height="60" as="geometry" />
        </mxCell>
        <mxCell id="b8WQgHWOanL6_8N-6dOk-15" style="edgeStyle=orthogonalEdgeStyle;rounded=0;orthogonalLoop=1;jettySize=auto;html=1;exitX=1;exitY=0.5;exitDx=0;exitDy=0;entryX=0;entryY=0.5;entryDx=0;entryDy=0;" edge="1" parent="1" source="b8WQgHWOanL6_8N-6dOk-5" target="b8WQgHWOanL6_8N-6dOk-6">
          <mxGeometry relative="1" as="geometry" />
        </mxCell>
        <mxCell id="BLLZ_54nRhWlopWwgQ87-20" style="edgeStyle=orthogonalEdgeStyle;rounded=0;orthogonalLoop=1;jettySize=auto;html=1;exitX=0.5;exitY=1;exitDx=0;exitDy=0;entryX=0.065;entryY=0;entryDx=0;entryDy=0;entryPerimeter=0;" edge="1" parent="1" source="b8WQgHWOanL6_8N-6dOk-5" target="b8WQgHWOanL6_8N-6dOk-20">
          <mxGeometry relative="1" as="geometry" />
        </mxCell>
        <mxCell id="b8WQgHWOanL6_8N-6dOk-5" value="Security Check" style="rounded=0;whiteSpace=wrap;html=1;" vertex="1" parent="1">
          <mxGeometry x="130" y="215" width="50" height="45" as="geometry" />
        </mxCell>
        <mxCell id="b8WQgHWOanL6_8N-6dOk-16" style="edgeStyle=orthogonalEdgeStyle;rounded=0;orthogonalLoop=1;jettySize=auto;html=1;exitX=1;exitY=0.5;exitDx=0;exitDy=0;entryX=0;entryY=0.5;entryDx=0;entryDy=0;" edge="1" parent="1" source="b8WQgHWOanL6_8N-6dOk-6" target="b8WQgHWOanL6_8N-6dOk-7">
          <mxGeometry relative="1" as="geometry" />
        </mxCell>
        <mxCell id="BLLZ_54nRhWlopWwgQ87-21" style="edgeStyle=orthogonalEdgeStyle;rounded=0;orthogonalLoop=1;jettySize=auto;html=1;exitX=0.5;exitY=1;exitDx=0;exitDy=0;entryX=0.123;entryY=-0.05;entryDx=0;entryDy=0;entryPerimeter=0;" edge="1" parent="1" source="b8WQgHWOanL6_8N-6dOk-6" target="b8WQgHWOanL6_8N-6dOk-20">
          <mxGeometry relative="1" as="geometry" />
        </mxCell>
        <mxCell id="b8WQgHWOanL6_8N-6dOk-6" value="Build" style="rounded=0;whiteSpace=wrap;html=1;" vertex="1" parent="1">
          <mxGeometry x="210" y="220" width="40" height="35" as="geometry" />
        </mxCell>
        <mxCell id="BLLZ_54nRhWlopWwgQ87-4" style="edgeStyle=orthogonalEdgeStyle;rounded=0;orthogonalLoop=1;jettySize=auto;html=1;exitX=1;exitY=0.5;exitDx=0;exitDy=0;entryX=0;entryY=0.5;entryDx=0;entryDy=0;" edge="1" parent="1" source="b8WQgHWOanL6_8N-6dOk-7" target="b8WQgHWOanL6_8N-6dOk-8">
          <mxGeometry relative="1" as="geometry" />
        </mxCell>
        <mxCell id="BLLZ_54nRhWlopWwgQ87-22" style="edgeStyle=orthogonalEdgeStyle;rounded=0;orthogonalLoop=1;jettySize=auto;html=1;exitX=0.5;exitY=1;exitDx=0;exitDy=0;entryX=0.181;entryY=-0.067;entryDx=0;entryDy=0;entryPerimeter=0;" edge="1" parent="1" source="b8WQgHWOanL6_8N-6dOk-7" target="b8WQgHWOanL6_8N-6dOk-20">
          <mxGeometry relative="1" as="geometry" />
        </mxCell>
        <mxCell id="b8WQgHWOanL6_8N-6dOk-7" value="Analysis" style="rounded=0;whiteSpace=wrap;html=1;" vertex="1" parent="1">
          <mxGeometry x="280" y="220" width="50" height="35" as="geometry" />
        </mxCell>
        <mxCell id="gl9EAQXiSqh2vjlT5E5U-1" style="edgeStyle=orthogonalEdgeStyle;rounded=0;orthogonalLoop=1;jettySize=auto;html=1;exitX=0.5;exitY=0;exitDx=0;exitDy=0;entryX=0.5;entryY=1;entryDx=0;entryDy=0;" edge="1" parent="1" source="b8WQgHWOanL6_8N-6dOk-8" target="b8WQgHWOanL6_8N-6dOk-41">
          <mxGeometry relative="1" as="geometry" />
        </mxCell>
        <mxCell id="BLLZ_54nRhWlopWwgQ87-23" style="edgeStyle=orthogonalEdgeStyle;rounded=0;orthogonalLoop=1;jettySize=auto;html=1;exitX=0.5;exitY=1;exitDx=0;exitDy=0;entryX=0.242;entryY=0;entryDx=0;entryDy=0;entryPerimeter=0;" edge="1" parent="1" source="b8WQgHWOanL6_8N-6dOk-8" target="b8WQgHWOanL6_8N-6dOk-20">
          <mxGeometry relative="1" as="geometry" />
        </mxCell>
        <mxCell id="b8WQgHWOanL6_8N-6dOk-8" value="" style="rounded=0;whiteSpace=wrap;html=1;" vertex="1" parent="1">
          <mxGeometry x="370" y="222.5" width="30" height="30" as="geometry" />
        </mxCell>
        <mxCell id="b8WQgHWOanL6_8N-6dOk-9" value="&lt;font style=&quot;font-size: 18px;&quot;&gt;...&lt;/font&gt;" style="text;html=1;align=center;verticalAlign=middle;resizable=0;points=[];autosize=1;strokeColor=none;fillColor=none;" vertex="1" parent="1">
          <mxGeometry x="410" y="220" width="40" height="40" as="geometry" />
        </mxCell>
        <mxCell id="b8WQgHWOanL6_8N-6dOk-13" style="edgeStyle=orthogonalEdgeStyle;rounded=0;orthogonalLoop=1;jettySize=auto;html=1;exitX=1;exitY=0.5;exitDx=0;exitDy=0;entryX=0;entryY=0.5;entryDx=0;entryDy=0;" edge="1" parent="1" source="b8WQgHWOanL6_8N-6dOk-10" target="b8WQgHWOanL6_8N-6dOk-12">
          <mxGeometry relative="1" as="geometry" />
        </mxCell>
        <mxCell id="BLLZ_54nRhWlopWwgQ87-24" style="edgeStyle=orthogonalEdgeStyle;rounded=0;orthogonalLoop=1;jettySize=auto;html=1;exitX=0.5;exitY=1;exitDx=0;exitDy=0;entryX=0.327;entryY=-0.067;entryDx=0;entryDy=0;entryPerimeter=0;" edge="1" parent="1" source="b8WQgHWOanL6_8N-6dOk-10" target="b8WQgHWOanL6_8N-6dOk-20">
          <mxGeometry relative="1" as="geometry" />
        </mxCell>
        <mxCell id="b8WQgHWOanL6_8N-6dOk-10" value="" style="rounded=0;whiteSpace=wrap;html=1;" vertex="1" parent="1">
          <mxGeometry x="480" y="225" width="30" height="30" as="geometry" />
        </mxCell>
        <mxCell id="BLLZ_54nRhWlopWwgQ87-14" style="edgeStyle=orthogonalEdgeStyle;rounded=0;orthogonalLoop=1;jettySize=auto;html=1;exitX=1;exitY=0.5;exitDx=0;exitDy=0;entryX=0;entryY=0.5;entryDx=0;entryDy=0;" edge="1" parent="1" source="b8WQgHWOanL6_8N-6dOk-12" target="BLLZ_54nRhWlopWwgQ87-10">
          <mxGeometry relative="1" as="geometry" />
        </mxCell>
        <mxCell id="BLLZ_54nRhWlopWwgQ87-25" style="edgeStyle=orthogonalEdgeStyle;rounded=0;orthogonalLoop=1;jettySize=auto;html=1;exitX=0.5;exitY=1;exitDx=0;exitDy=0;" edge="1" parent="1" source="b8WQgHWOanL6_8N-6dOk-12">
          <mxGeometry relative="1" as="geometry">
            <mxPoint x="715" y="320" as="targetPoint" />
          </mxGeometry>
        </mxCell>
        <mxCell id="b8WQgHWOanL6_8N-6dOk-12" value="Deploy" style="rounded=0;whiteSpace=wrap;html=1;" vertex="1" parent="1">
          <mxGeometry x="690" y="222.5" width="50" height="35" as="geometry" />
        </mxCell>
        <mxCell id="b8WQgHWOanL6_8N-6dOk-14" value="Ops" style="text;html=1;align=center;verticalAlign=middle;resizable=0;points=[];autosize=1;strokeColor=none;fillColor=none;" vertex="1" parent="1">
          <mxGeometry x="640" y="270" width="50" height="30" as="geometry" />
        </mxCell>
        <mxCell id="b8WQgHWOanL6_8N-6dOk-18" value="Repositorio Aplicaci칩n" style="text;html=1;align=center;verticalAlign=middle;resizable=0;points=[];autosize=1;strokeColor=none;fillColor=none;" vertex="1" parent="1">
          <mxGeometry x="210" y="180" width="140" height="30" as="geometry" />
        </mxCell>
        <mxCell id="b8WQgHWOanL6_8N-6dOk-19" value="Repositorio Configuraci칩n" style="text;html=1;align=center;verticalAlign=middle;resizable=0;points=[];autosize=1;strokeColor=none;fillColor=none;" vertex="1" parent="1">
          <mxGeometry x="625" y="180" width="160" height="30" as="geometry" />
        </mxCell>
        <mxCell id="b8WQgHWOanL6_8N-6dOk-20" value="&lt;font style=&quot;font-size: 18px;&quot;&gt;Monitorizaci칩n&lt;/font&gt;" style="whiteSpace=wrap;html=1;" vertex="1" parent="1">
          <mxGeometry x="70" y="330" width="1300" height="60" as="geometry" />
        </mxCell>
        <mxCell id="b8WQgHWOanL6_8N-6dOk-21" value="&lt;font style=&quot;font-size: 18px;&quot;&gt;Observabilidad&lt;/font&gt;" style="whiteSpace=wrap;html=1;" vertex="1" parent="1">
          <mxGeometry x="70" y="460" width="1300" height="60" as="geometry" />
        </mxCell>
        <mxCell id="b8WQgHWOanL6_8N-6dOk-36" value="Kubernetes Distro" style="rounded=0;whiteSpace=wrap;html=1;" vertex="1" parent="1">
          <mxGeometry x="1205" y="160" width="110" height="60" as="geometry" />
        </mxCell>
        <mxCell id="b8WQgHWOanL6_8N-6dOk-37" value="" style="rounded=0;whiteSpace=wrap;html=1;" vertex="1" parent="1">
          <mxGeometry x="1215" y="130" width="30" height="30" as="geometry" />
        </mxCell>
        <mxCell id="b8WQgHWOanL6_8N-6dOk-38" value="App" style="text;html=1;align=center;verticalAlign=middle;resizable=0;points=[];autosize=1;strokeColor=none;fillColor=none;" vertex="1" parent="1">
          <mxGeometry x="1210" y="100" width="40" height="30" as="geometry" />
        </mxCell>
        <mxCell id="BLLZ_54nRhWlopWwgQ87-43" style="edgeStyle=orthogonalEdgeStyle;rounded=0;orthogonalLoop=1;jettySize=auto;html=1;exitX=1;exitY=0.5;exitDx=0;exitDy=0;entryX=0;entryY=0.5;entryDx=0;entryDy=0;" edge="1" parent="1" source="b8WQgHWOanL6_8N-6dOk-41" target="BLLZ_54nRhWlopWwgQ87-1">
          <mxGeometry relative="1" as="geometry">
            <Array as="points">
              <mxPoint x="1040" y="120" />
              <mxPoint x="1040" y="190" />
            </Array>
          </mxGeometry>
        </mxCell>
        <mxCell id="b8WQgHWOanL6_8N-6dOk-41" value="Docker Registry" style="rounded=0;whiteSpace=wrap;html=1;" vertex="1" parent="1">
          <mxGeometry x="330" y="90" width="110" height="60" as="geometry" />
        </mxCell>
        <mxCell id="BLLZ_54nRhWlopWwgQ87-30" style="edgeStyle=orthogonalEdgeStyle;rounded=0;orthogonalLoop=1;jettySize=auto;html=1;exitX=0.5;exitY=1;exitDx=0;exitDy=0;entryX=0.916;entryY=0;entryDx=0;entryDy=0;entryPerimeter=0;" edge="1" parent="1" source="b8WQgHWOanL6_8N-6dOk-42" target="b8WQgHWOanL6_8N-6dOk-20">
          <mxGeometry relative="1" as="geometry" />
        </mxCell>
        <mxCell id="b8WQgHWOanL6_8N-6dOk-42" value="Infraestructura" style="rounded=0;whiteSpace=wrap;html=1;" vertex="1" parent="1">
          <mxGeometry x="1205" y="220" width="110" height="60" as="geometry" />
        </mxCell>
        <mxCell id="b8WQgHWOanL6_8N-6dOk-43" value="" style="shape=curlyBracket;whiteSpace=wrap;html=1;rounded=1;flipH=1;labelPosition=right;verticalLabelPosition=middle;align=left;verticalAlign=middle;rotation=-90;" vertex="1" parent="1">
          <mxGeometry x="325" y="-180" width="25" height="485" as="geometry" />
        </mxCell>
        <mxCell id="b8WQgHWOanL6_8N-6dOk-44" value="CI" style="text;html=1;align=center;verticalAlign=middle;resizable=0;points=[];autosize=1;strokeColor=none;fillColor=none;" vertex="1" parent="1">
          <mxGeometry x="317.5" y="20" width="40" height="30" as="geometry" />
        </mxCell>
        <mxCell id="b8WQgHWOanL6_8N-6dOk-45" value="" style="shape=curlyBracket;whiteSpace=wrap;html=1;rounded=1;flipH=1;labelPosition=right;verticalLabelPosition=middle;align=left;verticalAlign=middle;rotation=-90;" vertex="1" parent="1">
          <mxGeometry x="959.85" y="-299.84" width="25" height="724.68" as="geometry" />
        </mxCell>
        <mxCell id="b8WQgHWOanL6_8N-6dOk-46" value="CD" style="text;html=1;align=center;verticalAlign=middle;resizable=0;points=[];autosize=1;strokeColor=none;fillColor=none;" vertex="1" parent="1">
          <mxGeometry x="955" y="20" width="40" height="30" as="geometry" />
        </mxCell>
        <mxCell id="BLLZ_54nRhWlopWwgQ87-8" style="edgeStyle=orthogonalEdgeStyle;rounded=0;orthogonalLoop=1;jettySize=auto;html=1;exitX=1;exitY=0.5;exitDx=0;exitDy=0;entryX=0;entryY=0.5;entryDx=0;entryDy=0;" edge="1" parent="1" source="BLLZ_54nRhWlopWwgQ87-1" target="b8WQgHWOanL6_8N-6dOk-36">
          <mxGeometry relative="1" as="geometry" />
        </mxCell>
        <mxCell id="BLLZ_54nRhWlopWwgQ87-29" style="edgeStyle=orthogonalEdgeStyle;rounded=0;orthogonalLoop=1;jettySize=auto;html=1;exitX=0.5;exitY=1;exitDx=0;exitDy=0;entryX=0.813;entryY=-0.033;entryDx=0;entryDy=0;entryPerimeter=0;" edge="1" parent="1" source="BLLZ_54nRhWlopWwgQ87-1" target="b8WQgHWOanL6_8N-6dOk-20">
          <mxGeometry relative="1" as="geometry" />
        </mxCell>
        <mxCell id="BLLZ_54nRhWlopWwgQ87-1" value="GitOps Controller" style="rounded=0;whiteSpace=wrap;html=1;" vertex="1" parent="1">
          <mxGeometry x="1090" y="160" width="73.75" height="60" as="geometry" />
        </mxCell>
        <mxCell id="BLLZ_54nRhWlopWwgQ87-15" style="edgeStyle=orthogonalEdgeStyle;rounded=0;orthogonalLoop=1;jettySize=auto;html=1;exitX=1;exitY=0.5;exitDx=0;exitDy=0;entryX=0;entryY=0.5;entryDx=0;entryDy=0;" edge="1" parent="1" source="BLLZ_54nRhWlopWwgQ87-10" target="BLLZ_54nRhWlopWwgQ87-11">
          <mxGeometry relative="1" as="geometry" />
        </mxCell>
        <mxCell id="BLLZ_54nRhWlopWwgQ87-26" style="edgeStyle=orthogonalEdgeStyle;rounded=0;orthogonalLoop=1;jettySize=auto;html=1;exitX=0.5;exitY=1;exitDx=0;exitDy=0;entryX=0.569;entryY=-0.033;entryDx=0;entryDy=0;entryPerimeter=0;" edge="1" parent="1" source="BLLZ_54nRhWlopWwgQ87-10" target="b8WQgHWOanL6_8N-6dOk-20">
          <mxGeometry relative="1" as="geometry" />
        </mxCell>
        <mxCell id="BLLZ_54nRhWlopWwgQ87-10" value="" style="rounded=0;whiteSpace=wrap;html=1;" vertex="1" parent="1">
          <mxGeometry x="794.38" y="225" width="30" height="30" as="geometry" />
        </mxCell>
        <mxCell id="BLLZ_54nRhWlopWwgQ87-27" style="edgeStyle=orthogonalEdgeStyle;rounded=0;orthogonalLoop=1;jettySize=auto;html=1;exitX=0.5;exitY=1;exitDx=0;exitDy=0;entryX=0.635;entryY=-0.067;entryDx=0;entryDy=0;entryPerimeter=0;" edge="1" parent="1" source="BLLZ_54nRhWlopWwgQ87-11" target="b8WQgHWOanL6_8N-6dOk-20">
          <mxGeometry relative="1" as="geometry" />
        </mxCell>
        <mxCell id="BLLZ_54nRhWlopWwgQ87-11" value="" style="rounded=0;whiteSpace=wrap;html=1;" vertex="1" parent="1">
          <mxGeometry x="880" y="225" width="30" height="30" as="geometry" />
        </mxCell>
        <mxCell id="BLLZ_54nRhWlopWwgQ87-12" value="&lt;font style=&quot;font-size: 18px;&quot;&gt;...&lt;/font&gt;" style="text;html=1;align=center;verticalAlign=middle;resizable=0;points=[];autosize=1;strokeColor=none;fillColor=none;" vertex="1" parent="1">
          <mxGeometry x="910" y="217.5" width="40" height="40" as="geometry" />
        </mxCell>
        <mxCell id="BLLZ_54nRhWlopWwgQ87-28" style="edgeStyle=orthogonalEdgeStyle;rounded=0;orthogonalLoop=1;jettySize=auto;html=1;exitX=0.5;exitY=1;exitDx=0;exitDy=0;entryX=0.696;entryY=0;entryDx=0;entryDy=0;entryPerimeter=0;" edge="1" parent="1" source="BLLZ_54nRhWlopWwgQ87-13" target="b8WQgHWOanL6_8N-6dOk-20">
          <mxGeometry relative="1" as="geometry" />
        </mxCell>
        <mxCell id="BLLZ_54nRhWlopWwgQ87-45" style="edgeStyle=orthogonalEdgeStyle;rounded=0;orthogonalLoop=1;jettySize=auto;html=1;exitX=1;exitY=0.5;exitDx=0;exitDy=0;entryX=0;entryY=0.5;entryDx=0;entryDy=0;" edge="1" parent="1" source="BLLZ_54nRhWlopWwgQ87-13" target="BLLZ_54nRhWlopWwgQ87-1">
          <mxGeometry relative="1" as="geometry" />
        </mxCell>
        <mxCell id="BLLZ_54nRhWlopWwgQ87-13" value="" style="rounded=0;whiteSpace=wrap;html=1;" vertex="1" parent="1">
          <mxGeometry x="960" y="225" width="30" height="30" as="geometry" />
        </mxCell>
        <mxCell id="BLLZ_54nRhWlopWwgQ87-32" style="edgeStyle=orthogonalEdgeStyle;rounded=0;orthogonalLoop=1;jettySize=auto;html=1;exitX=0.5;exitY=1;exitDx=0;exitDy=0;entryX=0.123;entryY=-0.05;entryDx=0;entryDy=0;entryPerimeter=0;" edge="1" parent="1">
          <mxGeometry relative="1" as="geometry">
            <mxPoint x="154.5" y="390" as="sourcePoint" />
            <mxPoint x="154.5" y="462" as="targetPoint" />
          </mxGeometry>
        </mxCell>
        <mxCell id="BLLZ_54nRhWlopWwgQ87-33" style="edgeStyle=orthogonalEdgeStyle;rounded=0;orthogonalLoop=1;jettySize=auto;html=1;exitX=0.5;exitY=1;exitDx=0;exitDy=0;entryX=0.123;entryY=-0.05;entryDx=0;entryDy=0;entryPerimeter=0;" edge="1" parent="1">
          <mxGeometry relative="1" as="geometry">
            <mxPoint x="229.5" y="390" as="sourcePoint" />
            <mxPoint x="229.5" y="462" as="targetPoint" />
          </mxGeometry>
        </mxCell>
        <mxCell id="BLLZ_54nRhWlopWwgQ87-34" style="edgeStyle=orthogonalEdgeStyle;rounded=0;orthogonalLoop=1;jettySize=auto;html=1;exitX=0.5;exitY=1;exitDx=0;exitDy=0;entryX=0.123;entryY=-0.05;entryDx=0;entryDy=0;entryPerimeter=0;" edge="1" parent="1">
          <mxGeometry relative="1" as="geometry">
            <mxPoint x="304.5" y="390" as="sourcePoint" />
            <mxPoint x="304.5" y="462" as="targetPoint" />
          </mxGeometry>
        </mxCell>
        <mxCell id="BLLZ_54nRhWlopWwgQ87-35" style="edgeStyle=orthogonalEdgeStyle;rounded=0;orthogonalLoop=1;jettySize=auto;html=1;exitX=0.5;exitY=1;exitDx=0;exitDy=0;entryX=0.123;entryY=-0.05;entryDx=0;entryDy=0;entryPerimeter=0;" edge="1" parent="1">
          <mxGeometry relative="1" as="geometry">
            <mxPoint x="384.5" y="390" as="sourcePoint" />
            <mxPoint x="384.5" y="462" as="targetPoint" />
          </mxGeometry>
        </mxCell>
        <mxCell id="BLLZ_54nRhWlopWwgQ87-36" style="edgeStyle=orthogonalEdgeStyle;rounded=0;orthogonalLoop=1;jettySize=auto;html=1;exitX=0.5;exitY=1;exitDx=0;exitDy=0;entryX=0.123;entryY=-0.05;entryDx=0;entryDy=0;entryPerimeter=0;" edge="1" parent="1">
          <mxGeometry relative="1" as="geometry">
            <mxPoint x="494.5" y="390" as="sourcePoint" />
            <mxPoint x="494.5" y="462" as="targetPoint" />
          </mxGeometry>
        </mxCell>
        <mxCell id="BLLZ_54nRhWlopWwgQ87-37" style="edgeStyle=orthogonalEdgeStyle;rounded=0;orthogonalLoop=1;jettySize=auto;html=1;exitX=0.5;exitY=1;exitDx=0;exitDy=0;entryX=0.123;entryY=-0.05;entryDx=0;entryDy=0;entryPerimeter=0;" edge="1" parent="1">
          <mxGeometry relative="1" as="geometry">
            <mxPoint x="714.5" y="390" as="sourcePoint" />
            <mxPoint x="714.5" y="462" as="targetPoint" />
          </mxGeometry>
        </mxCell>
        <mxCell id="BLLZ_54nRhWlopWwgQ87-38" style="edgeStyle=orthogonalEdgeStyle;rounded=0;orthogonalLoop=1;jettySize=auto;html=1;exitX=0.5;exitY=1;exitDx=0;exitDy=0;entryX=0.123;entryY=-0.05;entryDx=0;entryDy=0;entryPerimeter=0;" edge="1" parent="1">
          <mxGeometry relative="1" as="geometry">
            <mxPoint x="808.88" y="390" as="sourcePoint" />
            <mxPoint x="808.88" y="462" as="targetPoint" />
          </mxGeometry>
        </mxCell>
        <mxCell id="BLLZ_54nRhWlopWwgQ87-39" style="edgeStyle=orthogonalEdgeStyle;rounded=0;orthogonalLoop=1;jettySize=auto;html=1;exitX=0.5;exitY=1;exitDx=0;exitDy=0;entryX=0.123;entryY=-0.05;entryDx=0;entryDy=0;entryPerimeter=0;" edge="1" parent="1">
          <mxGeometry relative="1" as="geometry">
            <mxPoint x="894.5" y="390" as="sourcePoint" />
            <mxPoint x="894.5" y="462" as="targetPoint" />
          </mxGeometry>
        </mxCell>
        <mxCell id="BLLZ_54nRhWlopWwgQ87-40" style="edgeStyle=orthogonalEdgeStyle;rounded=0;orthogonalLoop=1;jettySize=auto;html=1;exitX=0.5;exitY=1;exitDx=0;exitDy=0;entryX=0.123;entryY=-0.05;entryDx=0;entryDy=0;entryPerimeter=0;" edge="1" parent="1">
          <mxGeometry relative="1" as="geometry">
            <mxPoint x="974.5" y="390" as="sourcePoint" />
            <mxPoint x="974.5" y="462" as="targetPoint" />
          </mxGeometry>
        </mxCell>
        <mxCell id="BLLZ_54nRhWlopWwgQ87-41" style="edgeStyle=orthogonalEdgeStyle;rounded=0;orthogonalLoop=1;jettySize=auto;html=1;exitX=0.5;exitY=1;exitDx=0;exitDy=0;entryX=0.123;entryY=-0.05;entryDx=0;entryDy=0;entryPerimeter=0;" edge="1" parent="1">
          <mxGeometry relative="1" as="geometry">
            <mxPoint x="1126.38" y="390" as="sourcePoint" />
            <mxPoint x="1126.38" y="462" as="targetPoint" />
          </mxGeometry>
        </mxCell>
        <mxCell id="BLLZ_54nRhWlopWwgQ87-42" style="edgeStyle=orthogonalEdgeStyle;rounded=0;orthogonalLoop=1;jettySize=auto;html=1;exitX=0.5;exitY=1;exitDx=0;exitDy=0;entryX=0.123;entryY=-0.05;entryDx=0;entryDy=0;entryPerimeter=0;" edge="1" parent="1">
          <mxGeometry relative="1" as="geometry">
            <mxPoint x="1259.5" y="390" as="sourcePoint" />
            <mxPoint x="1259.5" y="462" as="targetPoint" />
          </mxGeometry>
        </mxCell>
      </root>
    </mxGraphModel>
  </diagram>
</mxfile>
